<svg viewBox="0 0 30 30" xmlns="http://www.w3.org/2000/svg"><path d="M25.607 4.393c5.857 5.858 5.858 15.355 0 21.214-5.857 5.858-15.356 5.857-21.213 0-5.859-5.858-5.859-15.355 0-21.214 5.858-5.858 15.356-5.857 21.213 0zm-12.79 13.293c.26 0 .519-.099.717-.297l4.683-4.683a1.015 1.015 0 0 0-1.434-1.433L12.1 15.956a1.014 1.014 0 0 0 .717 1.73zm6.794-.48c.267 0 .533-.102.737-.306l3.4-3.4a3.41 3.41 0 0 0 .001-4.816L20.805 5.74a3.384 3.384 0 0 0-2.408-.995c-.911 0-1.767.354-2.408.995l-3.401 3.4a1.04 1.04 0 1 0 1.473 1.474l3.401-3.402c.496-.495 1.373-.496 1.868 0l2.946 2.945a1.324 1.324 0 0 1-.001 1.869l-3.4 3.401a1.041 1.041 0 0 0 .736 1.78zm-8.17 7.19c.871 0 1.743-.331 2.408-.995l3.4-3.4a1.042 1.042 0 0 0-1.473-1.474l-3.4 3.4a1.325 1.325 0 0 1-1.869 0l-2.946-2.945a1.325 1.325 0 0 1 0-1.87l3.401-3.4A1.041 1.041 0 1 0 9.49 12.24l-3.4 3.4a3.408 3.408 0 0 0 0 4.816L9.032 23.4a3.394 3.394 0 0 0 2.408.995z" fill="#fff"/></svg>