<svg width="35" height="41" xmlns="http://www.w3.org/2000/svg" viewBox="0 0 35 41"><g fill="#FFF" stroke="#FFF" stroke-width=".5" fill-rule="evenodd"><path d="M28.506 7.416l-2.248 1.307v1.73l2.248-1.308 4.667 2.693v5.389l-10.83 6.252v2.554l1.497.865v-2.554l10.83-6.254v-7.116zM2.18 29.731v-5.387l4.665-2.694.003.002 6.162-3.562v-2.57l-1.497-.865v2.572L.683 23.479v7.117l6.164 3.558 2.268-1.333v-1.728l-2.268 1.332z"/><path d="M13.01 5.585l4.666-2.694 4.667 2.694v12.506l2.268 1.273 1.505-.87-2.276-1.268V4.721l-6.164-3.558-6.163 3.558V7.3l1.497.864z"/><path d="M4.413 18.496l-2.233-1.27v-5.388l4.666-2.693 10.83 6.252 2.25-1.338v-1.73l-2.25 1.339-10.83-6.253-6.163 3.559v7.116l2.226 1.274zM34.67 26.14v-2.65l-2.21-1.3-1.514.874 2.226 1.29v5.378l-4.665 2.694-10.83-6.252-2.229 1.31v1.728l2.229-1.309 10.83 6.252 6.124-3.536.039-.012v-.01z"/><path d="M22.343 33.357v2.627l-4.667 2.694-4.666-2.694V23.49l-2.21-1.3-1.514.874 2.227 1.29v12.494l6.163 3.559 6.164-3.559v-2.626z"/></g></svg>