<svg width="136" height="62" viewBox="0 0 136 62" xmlns="http://www.w3.org/2000/svg"><g fill="#FFF" fill-rule="evenodd"><path d="M70 36.572h2V28h-2v8.572zm0-9.874h2v-2.126h-2v2.126zm-9-2.126h2.153v10.045H68v1.955h-7zm20.85 4.696c.54.695.808 1.63.808 2.807v4.688h-2.083v-4.52c0-.785-.132-1.364-.395-1.74-.263-.375-.686-.562-1.268-.562-.64 0-1.167.24-1.581.722v6.1h-2.083V28.36h1.949l.033.588c.706-.482 1.457-.722 2.252-.722 1.043 0 1.832.348 2.369 1.04M85.336 25h2.084v6.806l2.604-3.446h2.353l-3.059 4.034 3.126 4.37h-2.353l-2.67-3.732v3.731h-2.085zm13.162 5.881c.74 0 1.291-.168 1.656-.504.364-.336.545-.851.545-1.546 0-.695-.184-1.207-.555-1.537-.369-.331-.935-.497-1.697-.497h-1.78v4.084h1.831zM94.516 25H98.7c2.79 0 4.185 1.266 4.185 3.797 0 1.311-.354 2.286-1.059 2.924-.706.639-1.73.958-3.076.958h-2.084v4.084h-2.15V25zm15.338 9.494c.388-.48.58-1.12.58-1.916 0-.807-.192-1.453-.58-1.94-.387-.488-.921-.732-1.604-.732s-1.22.244-1.606.731c-.386.488-.58 1.134-.58 1.941 0 .796.194 1.435.58 1.916.387.481.923.723 1.606.723s1.217-.242 1.604-.723m-3.906 1.848a3.954 3.954 0 0 1-1.496-1.578 4.623 4.623 0 0 1-.521-2.186c0-.795.173-1.528.52-2.2a3.918 3.918 0 0 1 1.497-1.597c.648-.393 1.417-.59 2.302-.59.884 0 1.652.197 2.3.59a3.925 3.925 0 0 1 1.497 1.596c.348.673.522 1.406.522 2.201 0 .796-.174 1.524-.522 2.186a3.96 3.96 0 0 1-1.496 1.578c-.65.392-1.417.59-2.301.59-.885 0-1.654-.198-2.302-.59m13.894-1.848c.387-.48.58-1.12.58-1.916 0-.807-.193-1.453-.58-1.94-.387-.488-.92-.732-1.604-.732s-1.219.244-1.606.731c-.386.488-.58 1.134-.58 1.941 0 .796.194 1.435.58 1.916.387.481.922.723 1.606.723.683 0 1.217-.242 1.604-.723m-3.906 1.848a3.963 3.963 0 0 1-1.497-1.578 4.622 4.622 0 0 1-.52-2.186c0-.795.172-1.528.52-2.2a3.927 3.927 0 0 1 1.497-1.597c.648-.393 1.417-.59 2.302-.59.884 0 1.652.197 2.301.59a3.922 3.922 0 0 1 1.495 1.596c.348.673.522 1.406.522 2.201 0 .796-.174 1.524-.522 2.186a3.958 3.958 0 0 1-1.495 1.578c-.649.392-1.417.59-2.3.59-.886 0-1.655-.198-2.303-.59m8.458.428h2.083V25h-2.083zM43.496 13.79l-2.879 1.667v2.206l2.88-1.669 5.974 3.437v6.875l-13.865 7.977v3.259l1.916 1.103v-3.258l13.865-7.98v-9.079zm-7.891 36.448l-5.974 3.437-5.975-3.437v-14.26a2.949 2.949 0 0 0-1.477-2.546l-1.405-.794-1.934 1.114 2.386 1.338c.316.182.514.523.514.889V51.34l7.89 4.54 7.893-4.54v-3.35l-1.918-1.104v3.352z"/><path d="M9.791 42.26v-6.873l5.972-3.437.004.003 7.89-4.545v-3.28l-1.917-1.104v3.281L7.875 34.283v9.08l7.89 4.54 2.905-1.7v-2.205l-2.904 1.7zm13.865-30.807l5.975-3.437 5.974 3.437V27.41l2.904 1.624 1.927-1.11-2.913-1.617V10.35L29.63 5.81l-7.891 4.54v3.291l1.916 1.104z"/><path d="M12.65 27.926l-2.859-1.62V19.43l5.974-3.436 13.866 7.977 2.88-1.708v-2.206l-2.88 1.707-13.866-7.978-7.89 4.541v9.08l2.85 1.625zm38.738 9.752v-3.38l-2.83-1.66-1.938 1.116 2.85 1.647v6.859l-5.973 3.437L29.63 37.72l-2.853 1.671v2.206l2.853-1.67 13.866 7.977 7.841-4.512.05-.015v-.013z"/></g></svg>